#!OML:ASF F:\VICON\USERDATA\INSTALL\rory3\rory3.ASF
:FULLY-SPECIFIED
:DEGREES
143
root 1.88587 17.2887 -28.5413 10.3188 -7.71983 2.8982
lowerback -7.79024 0.776722 -1.86199
upperback -5.13981 1.13524 -0.715296
thorax -0.965602 0.597902 0.384577
lowerneck -14.4267 -1.75084 -6.36785
upperneck 24.8105 -1.96415 4.17235
head 10.4245 -1.01871 2.3074
rclavicle -1.61078e-014 1.54058e-014
rhumerus -44.4906 5.13983 -91.0009
rradius 33.7491
rwrist 2.52255
rhand -26.0956 -47.5676
rfingers 7.12502
rthumb 0.453374 -77.5469
lclavicle -1.61078e-014 1.54058e-014
lhumerus -37.0273 -7.23715 86.7082
lradius 30.6726
lwrist 9.24034
lhand -34.5678 -26.5074
lfingers 7.12502
lthumb -7.72761 3.33137
rfemur -32.478 3.82341 16.1209
rtibia 75.6085
rfoot 0.968926 -6.58444
rtoes -9.58688
lfemur -27.8391 -3.67209 -28.9992
ltibia 34.7254
lfoot -16.2867 5.21208
ltoes 7.84063
144
root 1.88604 17.2887 -28.4245 9.71147 -6.86492 2.9853
lowerback -7.72927 0.429954 -1.7695
upperback -4.62723 0.677528 -0.73284
thorax -0.457429 0.360765 0.287172
lowerneck -14.7256 -1.669 -6.24564
upperneck 24.6856 -1.83882 4.10488
head 10.4271 -0.953318 2.27695
rclavicle 2.95692e-015 9.44227e-015
rhumerus -43.9203 5.20353 -91.0926
rradius 33.6496
rwrist 1.54362
rhand -24.2544 -50.6724
rfingers 7.12502
rthumb 2.23164 -80.6404
lclavicle 2.95692e-015 9.44227e-015
lhumerus -35.8727 -7.65864 86.6786
lradius 30.4484
lwrist 9.2596
lhand -34.5121 -27.0186
lfingers 7.12502
lthumb -7.67386 2.82213
rfemur -32.8672 3.23006 16.2952
rtibia 75.9618
rfoot -1.14925 -7.53391
rtoes -11.3794
lfemur -26.7839 -4.16916 -29.0933
ltibia 34.8114
lfoot -16.6166 5.08884
ltoes 7.64376
145
root 1.89053 17.2884 -28.2899 9.10061 -6.53992 3.10809
lowerback -7.16 0.218474 -1.68264
upperback -4.65694 0.377399 -0.750559
thorax -0.795934 0.211033 0.195767
lowerneck -14.6333 -1.52043 -6.28572
upperneck 25.0524 -1.6366 4.11746
head 10.5314 -0.867855 2.32091
rclavicle -5.71506e-015 1.39149e-015
rhumerus -44.0736 5.02752 -90.8674
rradius 33.4062
rwrist 2.44339
rhand -26.2372 -48.0553
rfingers 7.12502
rthumb 0.316666 -78.0348
lclavicle -5.71506e-015 1.39149e-015
lhumerus -35.7353 -7.80969 86.6824
lradius 30.4609
lwrist 9.20136
lhand -34.0198 -27.1386
lfingers 7.12502
lthumb -7.19864 2.71892
rfemur -33.2672 3.0644 16.3158
rtibia 76.0098
rfoot -2.37197 -8.47421
rtoes -11.8714
lfemur -25.5888 -4.2017 -29.3377
ltibia 34.8523
lfoot -17.1625 4.95718
ltoes 7.79772
146
root 1.88986 17.2764 -28.205 9.25772 -6.80281 3.23071
lowerback -7.05957 0.264846 -2.02747
upperback -4.5056 0.458744 -0.701519
thorax -0.700199 0.258186 0.444643
lowerneck -15.5323 -1.6236 -6.35387
upperneck 25.3474 -1.71695 4.13967
head 10.8226 -0.902695 2.33498
rclavicle -4.45402e-015 -7.95139e-015
rhumerus -43.3421 5.08987 -90.7822
rradius 33.1933
rwrist 1.6232
rhand -26.2332 -47.1189
rfingers 7.12502
rthumb 0.320488 -77.0984
lclavicle -4.45402e-015 -7.95139e-015
lhumerus -34.5209 -8.28588 86.825
lradius 30.4312
lwrist 9.23094
lhand -33.6305 -27.4257
lfingers 7.12502
lthumb -6.82288 2.44435
rfemur -35.0803 3.38303 16.1993
rtibia 76.0462
rfoot -2.7867 -9.26881
rtoes -12.1159
lfemur -25.4765 -4.21799 -29.5397
ltibia 34.9359
lfoot -17.5472 5.22051
ltoes 7.60287
147
root 1.88193 17.2572 -28.1311 9.57014 -6.86145 3.31668
lowerback -6.84681 0.245737 -2.39456
upperback -4.77865 0.441369 -0.659032
thorax -1.10436 0.26335 0.690086
lowerneck -15.223 -1.67477 -6.228
upperneck 25.2862 -1.80525 3.99706
head 10.7424 -0.950784 2.24846
rclavicle -1.35422e-015 -9.74045e-015
rhumerus -43.3388 4.4914 -90.2947
rradius 33.3238
rwrist 2.85136
rhand -25.9013 -48.0314
rfingers 7.12502
rthumb 0.641074 -78.0102
lclavicle -1.35422e-015 -9.74045e-015
lhumerus -34.0674 -8.90554 87.029
lradius 30.5065
lwrist 9.11541
lhand -33.4617 -27.6215
lfingers 7.12502
lthumb -6.6599 2.25378
rfemur -37.088 3.59857 16.1741
rtibia 76.0148
rfoot -3.22898 -10.0267
rtoes -11.6087
lfemur -25.6852 -4.05645 -29.6746
ltibia 35.1432
lfoot -17.9781 5.11771
ltoes 7.24284
148
root 1.87669 17.2408 -28.0453 9.8493 -7.04848 3.34225
lowerback -7.43818 0.238923 -2.53612
upperback -4.43994 0.466238 -0.65345
thorax -0.429615 0.269205 0.782539
lowerneck -15.8294 -1.69866 -6.02153
upperneck 25.2008 -1.80733 3.82688
head 10.8263 -0.945763 2.14975
rclavicle 1.11071e-014 -1.39149e-014
rhumerus -42.4812 4.68146 -90.4644
rradius 33.4386
rwrist 1.91592
rhand -26.7303 -47.9819
rfingers 7.12502
rthumb -0.159608 -77.9616
lclavicle 1.11071e-014 -1.39149e-014
lhumerus -32.7181 -9.37245 86.9811
lradius 30.5719
lwrist 9.02451
lhand -33.4073 -28.071
lfingers 7.12502
lthumb -6.60743 1.80595
rfemur -38.9128 3.91902 16.1587
rtibia 75.8234
rfoot -3.7754 -10.6836
rtoes -10.5743
lfemur -25.8251 -3.77496 -29.7863
ltibia 35.398
lfoot -18.4621 5.02911
ltoes 7.26349
149
root 1.87902 17.2249 -27.9451 9.88974 -7.77952 3.28705
lowerback -7.48562 0.395671 -2.61765
upperback -4.08344 0.688173 -0.548081
thorax -0.0446187 0.375687 0.954773
lowerneck -17.4264 -1.6991 -5.95291
upperneck 25.8241 -1.67933 3.6225
head 11.3665 -0.898261 2.09049
rclavicle -1.46293e-014 -1.53064e-014
rhumerus -41.4415 4.57883 -90.0253
rradius 33.3591
rwrist 3.11688
rhand -25.797 -48.032
rfingers 7.12502
rthumb 0.741787 -78.0105
lclavicle -1.46293e-014 -1.53064e-014
lhumerus -31.368 -9.65763 87.073
lradius 30.6926
lwrist 9.12567
lhand -33.6122 -27.7228
lfingers 7.12502
lthumb -6.80525 2.14786
rfemur -40.348 4.74899 16.0912
rtibia 75.3725
rfoot -4.78794 -11.2115
rtoes -8.75824
lfemur -25.5565 -3.51445 -29.8842
ltibia 35.4748
lfoot -18.8365 5.52154
ltoes 7.71799
150
root 1.87999 17.2102 -27.8475 9.96139 -7.96561 3.42056
lowerback -7.53558 0.346312 -2.86563
upperback -4.54862 0.628314 -0.468782
thorax -0.500725 0.360153 1.1685
lowerneck -15.5459 -1.55121 -5.94635
upperneck 25.4713 -1.53393 3.43065
head 10.8527 -0.867965 2.0348
rclavicle -1.41448e-014 4.96962e-015
rhumerus -42.4421 4.91284 -90.119
rradius 33.7028
rwrist 2.85056
rhand -26.3962 -47.7062
rfingers 7.12502
rthumb 0.163077 -77.6858
lclavicle -1.41448e-014 4.96962e-015
lhumerus -31.9285 -9.94252 87.4395
lradius 30.9157
lwrist 9.0309
lhand -33.7744 -27.4303
lfingers 7.12502
lthumb -6.96182 2.43517
rfemur -41.6137 5.05996 15.8913
rtibia 74.7837
rfoot -6.06201 -11.6906
rtoes -7.75059
lfemur -25.2618 -3.4997 -30.1497
ltibia 35.5282
lfoot -19.276 5.75541
ltoes 7.57268
